<svg xmlns="http://www.w3.org/2000/svg" width="720" height="240" viewBox="0 0 720 240" font-family="system-ui,Arial,sans-serif"><rect width="720" height="240" fill="white"/><text x="360" y="20" text-anchor="middle" font-size="15" font-weight="600">Monte Carlo: distribution of settlement return (20,000 trials)</text>
<rect x="70.0" y="184.4" width="12.2" height="7.6" fill="#93c5fd"/>
<rect x="83.2" y="133.5" width="12.2" height="58.5" fill="#93c5fd"/>
<rect x="96.5" y="55.2" width="12.2" height="136.8" fill="#93c5fd"/>
<rect x="109.8" y="36.0" width="12.2" height="156.0" fill="#93c5fd"/>
<rect x="123.0" y="49.8" width="12.2" height="142.2" fill="#93c5fd"/>
<rect x="136.2" y="79.4" width="12.2" height="112.6" fill="#93c5fd"/>
<rect x="149.5" y="110.0" width="12.2" height="82.0" fill="#93c5fd"/>
<rect x="162.8" y="132.4" width="12.2" height="59.6" fill="#93c5fd"/>
<rect x="176.0" y="144.5" width="12.2" height="47.5" fill="#93c5fd"/>
<rect x="189.2" y="154.0" width="12.2" height="38.0" fill="#93c5fd"/>
<rect x="202.5" y="162.6" width="12.2" height="29.4" fill="#93c5fd"/>
<rect x="215.8" y="168.8" width="12.2" height="23.2" fill="#93c5fd"/>
<rect x="229.0" y="173.0" width="12.2" height="19.0" fill="#93c5fd"/>
<rect x="242.2" y="176.7" width="12.2" height="15.3" fill="#93c5fd"/>
<rect x="255.5" y="178.0" width="12.2" height="14.0" fill="#93c5fd"/>
<rect x="268.8" y="179.8" width="12.2" height="12.2" fill="#93c5fd"/>
<rect x="282.0" y="183.5" width="12.2" height="8.5" fill="#93c5fd"/>
<rect x="295.2" y="183.0" width="12.2" height="9.0" fill="#93c5fd"/>
<rect x="308.5" y="185.0" width="12.2" height="7.0" fill="#93c5fd"/>
<rect x="321.8" y="185.8" width="12.2" height="6.2" fill="#93c5fd"/>
<rect x="335.0" y="185.9" width="12.2" height="6.1" fill="#93c5fd"/>
<rect x="348.2" y="187.8" width="12.2" height="4.2" fill="#93c5fd"/>
<rect x="361.5" y="187.7" width="12.2" height="4.3" fill="#93c5fd"/>
<rect x="374.8" y="186.9" width="12.2" height="5.1" fill="#93c5fd"/>
<rect x="388.0" y="188.5" width="12.2" height="3.5" fill="#93c5fd"/>
<rect x="401.2" y="188.7" width="12.2" height="3.3" fill="#93c5fd"/>
<rect x="414.5" y="188.3" width="12.2" height="3.7" fill="#93c5fd"/>
<rect x="427.8" y="189.3" width="12.2" height="2.7" fill="#93c5fd"/>
<rect x="441.0" y="188.9" width="12.2" height="3.1" fill="#93c5fd"/>
<rect x="454.3" y="190.4" width="12.2" height="1.6" fill="#93c5fd"/>
<rect x="467.5" y="190.2" width="12.2" height="1.8" fill="#93c5fd"/>
<rect x="480.8" y="190.3" width="12.2" height="1.7" fill="#93c5fd"/>
<rect x="494.0" y="190.9" width="12.2" height="1.1" fill="#93c5fd"/>
<rect x="507.3" y="190.8" width="12.2" height="1.2" fill="#93c5fd"/>
<rect x="520.5" y="189.9" width="12.2" height="2.1" fill="#93c5fd"/>
<rect x="533.8" y="190.7" width="12.2" height="1.3" fill="#93c5fd"/>
<rect x="547.0" y="190.7" width="12.2" height="1.3" fill="#93c5fd"/>
<rect x="560.2" y="191.0" width="12.2" height="1.0" fill="#93c5fd"/>
<rect x="573.5" y="191.0" width="12.2" height="1.0" fill="#93c5fd"/>
<rect x="586.8" y="168.6" width="12.2" height="23.4" fill="#93c5fd"/>
<line x1="70" y1="192" x2="600" y2="192" stroke="#374151"/>
<line x1="139.1" y1="36" x2="139.1" y2="192" stroke="#059669" stroke-width="1.5" stroke-dasharray="4 3"/>
<text x="139.1" y="34" text-anchor="middle" font-size="10" fill="#059669">median 13.43x</text>
<line x1="187.1" y1="36" x2="187.1" y2="192" stroke="#dc2626" stroke-width="1.5" stroke-dasharray="4 3"/>
<text x="187.1" y="34" text-anchor="middle" font-size="10" fill="#dc2626">mean 20.21x</text>
<text x="185.6" y="208" text-anchor="middle" font-size="10" fill="#374151">20x</text>
<text x="327.0" y="208" text-anchor="middle" font-size="10" fill="#374151">40x</text>
<text x="468.5" y="208" text-anchor="middle" font-size="10" fill="#374151">60x</text>
<text x="335" y="226" text-anchor="middle" font-size="12">settlement payout / total spend</text></svg>