<svg xmlns="http://www.w3.org/2000/svg" width="720" height="480" viewBox="0 0 720 480" font-family="system-ui,Arial,sans-serif"><rect width="720" height="480" fill="white"/><text x="360" y="20" text-anchor="middle" font-size="15" font-weight="600">Your % ownership as market cap grows</text>
<line x1="70" y1="192.0" x2="600" y2="192.0" stroke="#e5e7eb" stroke-width="1"/>
<text x="62" y="196.0" text-anchor="end" font-size="11" fill="#374151">0</text>
<line x1="70" y1="153.0" x2="600" y2="153.0" stroke="#e5e7eb" stroke-width="1"/>
<text x="62" y="157.0" text-anchor="end" font-size="11" fill="#374151">25</text>
<line x1="70" y1="114.0" x2="600" y2="114.0" stroke="#e5e7eb" stroke-width="1"/>
<text x="62" y="118.0" text-anchor="end" font-size="11" fill="#374151">50</text>
<line x1="70" y1="75.0" x2="600" y2="75.0" stroke="#e5e7eb" stroke-width="1"/>
<text x="62" y="79.0" text-anchor="end" font-size="11" fill="#374151">75</text>
<line x1="70" y1="36.0" x2="600" y2="36.0" stroke="#e5e7eb" stroke-width="1"/>
<text x="62" y="40.0" text-anchor="end" font-size="11" fill="#374151">100</text>
<line x1="70.0" y1="192" x2="70.0" y2="197" stroke="#9ca3af" stroke-width="1"/>
<text x="70.0" y="210" text-anchor="middle" font-size="10" fill="#374151">1x</text>
<line x1="123.2" y1="192" x2="123.2" y2="197" stroke="#9ca3af" stroke-width="1"/>
<text x="123.2" y="210" text-anchor="middle" font-size="10" fill="#374151">2x</text>
<line x1="246.7" y1="192" x2="246.7" y2="197" stroke="#9ca3af" stroke-width="1"/>
<text x="246.7" y="210" text-anchor="middle" font-size="10" fill="#374151">10x</text>
<line x1="423.3" y1="192" x2="423.3" y2="197" stroke="#9ca3af" stroke-width="1"/>
<text x="423.3" y="210" text-anchor="middle" font-size="10" fill="#374151">100x</text>
<line x1="600.0" y1="192" x2="600.0" y2="197" stroke="#9ca3af" stroke-width="1"/>
<text x="600.0" y="210" text-anchor="middle" font-size="10" fill="#374151">1000x</text>
<line x1="70" y1="36" x2="70" y2="192" stroke="#374151"/>
<line x1="70" y1="192" x2="600" y2="192" stroke="#374151"/>
<text x="24" y="114" text-anchor="middle" font-size="12" fill="#111827" transform="rotate(-90 24 114)">ownership %</text>
<text x="335" y="230" text-anchor="middle" font-size="12" fill="#111827">market-cap multiple (log)</text>
<polyline points="70.0,36.0 123.2,87.0 246.7,150.1 423.3,180.8 600.0,189.0" fill="none" stroke="#2563eb" stroke-width="2.5"/>
<circle cx="70.0" cy="36.0" r="3" fill="#2563eb"/>
<circle cx="123.2" cy="87.0" r="3" fill="#2563eb"/>
<circle cx="246.7" cy="150.1" r="3" fill="#2563eb"/>
<circle cx="423.3" cy="180.8" r="3" fill="#2563eb"/>
<circle cx="600.0" cy="189.0" r="3" fill="#2563eb"/>
<line x1="612" y1="42" x2="630" y2="42" stroke="#2563eb" stroke-width="3"/>
<text x="634" y="46" font-size="11" fill="#111827">ownership %</text><text x="360" y="260" text-anchor="middle" font-size="15" font-weight="600">Return multiple as market cap grows</text>
<line x1="70" y1="432.0" x2="600" y2="432.0" stroke="#e5e7eb" stroke-width="1"/>
<text x="62" y="436.0" text-anchor="end" font-size="11" fill="#374151">0</text>
<line x1="70" y1="385.3" x2="600" y2="385.3" stroke="#e5e7eb" stroke-width="1"/>
<text x="62" y="389.3" text-anchor="end" font-size="11" fill="#374151">10</text>
<line x1="70" y1="338.6" x2="600" y2="338.6" stroke="#e5e7eb" stroke-width="1"/>
<text x="62" y="342.6" text-anchor="end" font-size="11" fill="#374151">20</text>
<line x1="70" y1="291.9" x2="600" y2="291.9" stroke="#e5e7eb" stroke-width="1"/>
<text x="62" y="295.9" text-anchor="end" font-size="11" fill="#374151">30</text>
<line x1="70.0" y1="432" x2="70.0" y2="437" stroke="#9ca3af" stroke-width="1"/>
<text x="70.0" y="450" text-anchor="middle" font-size="10" fill="#374151">1x</text>
<line x1="123.2" y1="432" x2="123.2" y2="437" stroke="#9ca3af" stroke-width="1"/>
<text x="123.2" y="450" text-anchor="middle" font-size="10" fill="#374151">2x</text>
<line x1="246.7" y1="432" x2="246.7" y2="437" stroke="#9ca3af" stroke-width="1"/>
<text x="246.7" y="450" text-anchor="middle" font-size="10" fill="#374151">10x</text>
<line x1="423.3" y1="432" x2="423.3" y2="437" stroke="#9ca3af" stroke-width="1"/>
<text x="423.3" y="450" text-anchor="middle" font-size="10" fill="#374151">100x</text>
<line x1="600.0" y1="432" x2="600.0" y2="437" stroke="#9ca3af" stroke-width="1"/>
<text x="600.0" y="450" text-anchor="middle" font-size="10" fill="#374151">1000x</text>
<line x1="70" y1="276" x2="70" y2="432" stroke="#374151"/>
<line x1="70" y1="432" x2="600" y2="432" stroke="#374151"/>
<text x="24" y="354" text-anchor="middle" font-size="12" fill="#111827" transform="rotate(-90 24 354)">value / spend  (x)</text>
<text x="335" y="470" text-anchor="middle" font-size="12" fill="#111827">market-cap multiple (log)</text>
<polyline points="70.0,427.3 123.2,424.0 246.7,412.4 423.3,375.0 600.0,276.0" fill="none" stroke="#2563eb" stroke-width="2.5"/>
<circle cx="70.0" cy="427.3" r="3" fill="#2563eb"/>
<circle cx="123.2" cy="424.0" r="3" fill="#2563eb"/>
<circle cx="246.7" cy="412.4" r="3" fill="#2563eb"/>
<circle cx="423.3" cy="375.0" r="3" fill="#2563eb"/>
<circle cx="600.0" cy="276.0" r="3" fill="#2563eb"/>
<line x1="612" y1="282" x2="630" y2="282" stroke="#2563eb" stroke-width="3"/>
<text x="634" y="286" font-size="11" fill="#111827">sell-back (redeem)</text>
<polyline points="70.0,427.3 123.2,425.7 246.7,419.5 423.3,398.5 600.0,342.0" fill="none" stroke="#dc2626" stroke-width="2.5"/>
<circle cx="70.0" cy="427.3" r="3" fill="#dc2626"/>
<circle cx="123.2" cy="425.7" r="3" fill="#dc2626"/>
<circle cx="246.7" cy="419.5" r="3" fill="#dc2626"/>
<circle cx="423.3" cy="398.5" r="3" fill="#dc2626"/>
<circle cx="600.0" cy="342.0" r="3" fill="#dc2626"/>
<line x1="612" y1="300" x2="630" y2="300" stroke="#dc2626" stroke-width="3"/>
<text x="634" y="304" font-size="11" fill="#111827">settlement win</text></svg>