<svg xmlns="http://www.w3.org/2000/svg" width="720" height="480" viewBox="0 0 720 480" font-family="system-ui,Arial,sans-serif"><rect width="720" height="480" fill="white"/><text x="360" y="20" text-anchor="middle" font-size="15" font-weight="600">Your % ownership as market cap grows</text>
<line x1="70" y1="192.0" x2="600" y2="192.0" stroke="#e5e7eb" stroke-width="1"/>
<text x="62" y="196.0" text-anchor="end" font-size="11" fill="#374151">0</text>
<line x1="70" y1="153.0" x2="600" y2="153.0" stroke="#e5e7eb" stroke-width="1"/>
<text x="62" y="157.0" text-anchor="end" font-size="11" fill="#374151">25</text>
<line x1="70" y1="114.0" x2="600" y2="114.0" stroke="#e5e7eb" stroke-width="1"/>
<text x="62" y="118.0" text-anchor="end" font-size="11" fill="#374151">50</text>
<line x1="70" y1="75.0" x2="600" y2="75.0" stroke="#e5e7eb" stroke-width="1"/>
<text x="62" y="79.0" text-anchor="end" font-size="11" fill="#374151">75</text>
<line x1="70" y1="36.0" x2="600" y2="36.0" stroke="#e5e7eb" stroke-width="1"/>
<text x="62" y="40.0" text-anchor="end" font-size="11" fill="#374151">100</text>
<line x1="70.0" y1="192" x2="70.0" y2="197" stroke="#9ca3af" stroke-width="1"/>
<text x="70.0" y="210" text-anchor="middle" font-size="10" fill="#374151">1x</text>
<line x1="149.8" y1="192" x2="149.8" y2="197" stroke="#9ca3af" stroke-width="1"/>
<text x="149.8" y="210" text-anchor="middle" font-size="10" fill="#374151">2x</text>
<line x1="255.2" y1="192" x2="255.2" y2="197" stroke="#9ca3af" stroke-width="1"/>
<text x="255.2" y="210" text-anchor="middle" font-size="10" fill="#374151">5x</text>
<line x1="335.0" y1="192" x2="335.0" y2="197" stroke="#9ca3af" stroke-width="1"/>
<text x="335.0" y="210" text-anchor="middle" font-size="10" fill="#374151">10x</text>
<line x1="440.5" y1="192" x2="440.5" y2="197" stroke="#9ca3af" stroke-width="1"/>
<text x="440.5" y="210" text-anchor="middle" font-size="10" fill="#374151">25x</text>
<line x1="600.0" y1="192" x2="600.0" y2="197" stroke="#9ca3af" stroke-width="1"/>
<text x="600.0" y="210" text-anchor="middle" font-size="10" fill="#374151">100x</text>
<line x1="70" y1="36" x2="70" y2="192" stroke="#374151"/>
<line x1="70" y1="192" x2="600" y2="192" stroke="#374151"/>
<text x="24" y="114" text-anchor="middle" font-size="12" fill="#111827" transform="rotate(-90 24 114)">ownership %</text>
<text x="335" y="230" text-anchor="middle" font-size="12" fill="#111827">market-cap multiple (log)</text>
<polyline points="70.0,36.0 149.8,87.0 255.2,129.8 335.0,150.1 440.5,167.2 600.0,180.8" fill="none" stroke="#2563eb" stroke-width="2.5"/>
<circle cx="70.0" cy="36.0" r="3" fill="#2563eb"/>
<circle cx="149.8" cy="87.0" r="3" fill="#2563eb"/>
<circle cx="255.2" cy="129.8" r="3" fill="#2563eb"/>
<circle cx="335.0" cy="150.1" r="3" fill="#2563eb"/>
<circle cx="440.5" cy="167.2" r="3" fill="#2563eb"/>
<circle cx="600.0" cy="180.8" r="3" fill="#2563eb"/>
<line x1="612" y1="42" x2="630" y2="42" stroke="#2563eb" stroke-width="3"/>
<text x="634" y="46" font-size="11" fill="#111827">ownership %</text><text x="360" y="260" text-anchor="middle" font-size="15" font-weight="600">Return multiple as market cap grows</text>
<line x1="70" y1="432.0" x2="600" y2="432.0" stroke="#e5e7eb" stroke-width="1"/>
<text x="62" y="436.0" text-anchor="end" font-size="11" fill="#374151">0</text>
<line x1="70" y1="400.0" x2="600" y2="400.0" stroke="#e5e7eb" stroke-width="1"/>
<text x="62" y="404.0" text-anchor="end" font-size="11" fill="#374151">2.5</text>
<line x1="70" y1="368.1" x2="600" y2="368.1" stroke="#e5e7eb" stroke-width="1"/>
<text x="62" y="372.1" text-anchor="end" font-size="11" fill="#374151">5</text>
<line x1="70" y1="336.1" x2="600" y2="336.1" stroke="#e5e7eb" stroke-width="1"/>
<text x="62" y="340.1" text-anchor="end" font-size="11" fill="#374151">7.5</text>
<line x1="70" y1="304.2" x2="600" y2="304.2" stroke="#e5e7eb" stroke-width="1"/>
<text x="62" y="308.2" text-anchor="end" font-size="11" fill="#374151">10</text>
<line x1="70.0" y1="432" x2="70.0" y2="437" stroke="#9ca3af" stroke-width="1"/>
<text x="70.0" y="450" text-anchor="middle" font-size="10" fill="#374151">1x</text>
<line x1="149.8" y1="432" x2="149.8" y2="437" stroke="#9ca3af" stroke-width="1"/>
<text x="149.8" y="450" text-anchor="middle" font-size="10" fill="#374151">2x</text>
<line x1="255.2" y1="432" x2="255.2" y2="437" stroke="#9ca3af" stroke-width="1"/>
<text x="255.2" y="450" text-anchor="middle" font-size="10" fill="#374151">5x</text>
<line x1="335.0" y1="432" x2="335.0" y2="437" stroke="#9ca3af" stroke-width="1"/>
<text x="335.0" y="450" text-anchor="middle" font-size="10" fill="#374151">10x</text>
<line x1="440.5" y1="432" x2="440.5" y2="437" stroke="#9ca3af" stroke-width="1"/>
<text x="440.5" y="450" text-anchor="middle" font-size="10" fill="#374151">25x</text>
<line x1="600.0" y1="432" x2="600.0" y2="437" stroke="#9ca3af" stroke-width="1"/>
<text x="600.0" y="450" text-anchor="middle" font-size="10" fill="#374151">100x</text>
<line x1="70" y1="276" x2="70" y2="432" stroke="#374151"/>
<line x1="70" y1="432" x2="600" y2="432" stroke="#374151"/>
<text x="24" y="354" text-anchor="middle" font-size="12" fill="#111827" transform="rotate(-90 24 354)">value / spend  (x)</text>
<text x="335" y="470" text-anchor="middle" font-size="12" fill="#111827">market-cap multiple (log)</text>
<polyline points="70.0,419.3 149.8,410.1 255.2,394.5 335.0,378.4 440.5,348.8 600.0,276.0" fill="none" stroke="#2563eb" stroke-width="2.5"/>
<circle cx="70.0" cy="419.3" r="3" fill="#2563eb"/>
<circle cx="149.8" cy="410.1" r="3" fill="#2563eb"/>
<circle cx="255.2" cy="394.5" r="3" fill="#2563eb"/>
<circle cx="335.0" cy="378.4" r="3" fill="#2563eb"/>
<circle cx="440.5" cy="348.8" r="3" fill="#2563eb"/>
<circle cx="600.0" cy="276.0" r="3" fill="#2563eb"/>
<line x1="612" y1="282" x2="630" y2="282" stroke="#2563eb" stroke-width="3"/>
<text x="634" y="286" font-size="11" fill="#111827">sell-back (redeem)</text>
<polyline points="70.0,419.2 149.8,414.8 255.2,406.6 335.0,397.8 440.5,381.3 600.0,340.2" fill="none" stroke="#dc2626" stroke-width="2.5"/>
<circle cx="70.0" cy="419.2" r="3" fill="#dc2626"/>
<circle cx="149.8" cy="414.8" r="3" fill="#dc2626"/>
<circle cx="255.2" cy="406.6" r="3" fill="#dc2626"/>
<circle cx="335.0" cy="397.8" r="3" fill="#dc2626"/>
<circle cx="440.5" cy="381.3" r="3" fill="#dc2626"/>
<circle cx="600.0" cy="340.2" r="3" fill="#dc2626"/>
<line x1="612" y1="300" x2="630" y2="300" stroke="#dc2626" stroke-width="3"/>
<text x="634" y="304" font-size="11" fill="#111827">settlement win</text></svg>