<svg xmlns="http://www.w3.org/2000/svg" width="720" height="240" viewBox="0 0 720 240" font-family="system-ui,Arial,sans-serif"><rect width="720" height="240" fill="white"/><text x="360" y="20" text-anchor="middle" font-size="15" font-weight="600">Monte Carlo: distribution of settlement return (20,000 trials)</text>
<rect x="70.0" y="190.7" width="12.2" height="1.3" fill="#93c5fd"/>
<rect x="83.2" y="172.3" width="12.2" height="19.7" fill="#93c5fd"/>
<rect x="96.5" y="120.1" width="12.2" height="71.9" fill="#93c5fd"/>
<rect x="109.7" y="49.4" width="12.2" height="142.6" fill="#93c5fd"/>
<rect x="123.0" y="36.0" width="12.2" height="156.0" fill="#93c5fd"/>
<rect x="136.2" y="54.0" width="12.2" height="138.0" fill="#93c5fd"/>
<rect x="149.5" y="75.4" width="12.2" height="116.6" fill="#93c5fd"/>
<rect x="162.8" y="92.8" width="12.2" height="99.2" fill="#93c5fd"/>
<rect x="176.0" y="118.2" width="12.2" height="73.8" fill="#93c5fd"/>
<rect x="189.2" y="131.0" width="12.2" height="61.0" fill="#93c5fd"/>
<rect x="202.5" y="146.9" width="12.2" height="45.1" fill="#93c5fd"/>
<rect x="215.8" y="159.2" width="12.2" height="32.8" fill="#93c5fd"/>
<rect x="229.0" y="165.7" width="12.2" height="26.3" fill="#93c5fd"/>
<rect x="242.2" y="171.2" width="12.2" height="20.8" fill="#93c5fd"/>
<rect x="255.5" y="173.2" width="12.2" height="18.8" fill="#93c5fd"/>
<rect x="268.8" y="177.1" width="12.2" height="14.9" fill="#93c5fd"/>
<rect x="282.0" y="179.3" width="12.2" height="12.7" fill="#93c5fd"/>
<rect x="295.2" y="180.4" width="12.2" height="11.6" fill="#93c5fd"/>
<rect x="308.5" y="182.8" width="12.2" height="9.2" fill="#93c5fd"/>
<rect x="321.8" y="184.7" width="12.2" height="7.3" fill="#93c5fd"/>
<rect x="335.0" y="184.0" width="12.2" height="8.0" fill="#93c5fd"/>
<rect x="348.2" y="184.6" width="12.2" height="7.4" fill="#93c5fd"/>
<rect x="361.5" y="186.1" width="12.2" height="5.9" fill="#93c5fd"/>
<rect x="374.8" y="187.5" width="12.2" height="4.5" fill="#93c5fd"/>
<rect x="388.0" y="188.1" width="12.2" height="3.9" fill="#93c5fd"/>
<rect x="401.3" y="188.1" width="12.2" height="3.9" fill="#93c5fd"/>
<rect x="414.5" y="188.9" width="12.2" height="3.1" fill="#93c5fd"/>
<rect x="427.7" y="188.9" width="12.2" height="3.1" fill="#93c5fd"/>
<rect x="441.0" y="189.0" width="12.2" height="3.0" fill="#93c5fd"/>
<rect x="454.2" y="190.2" width="12.2" height="1.8" fill="#93c5fd"/>
<rect x="467.5" y="190.3" width="12.2" height="1.7" fill="#93c5fd"/>
<rect x="480.8" y="190.4" width="12.2" height="1.6" fill="#93c5fd"/>
<rect x="494.0" y="191.0" width="12.2" height="1.0" fill="#93c5fd"/>
<rect x="507.2" y="190.6" width="12.2" height="1.4" fill="#93c5fd"/>
<rect x="520.5" y="191.2" width="12.2" height="0.8" fill="#93c5fd"/>
<rect x="533.8" y="191.3" width="12.2" height="0.7" fill="#93c5fd"/>
<rect x="547.0" y="191.3" width="12.2" height="0.7" fill="#93c5fd"/>
<rect x="560.2" y="191.4" width="12.2" height="0.6" fill="#93c5fd"/>
<rect x="573.5" y="191.1" width="12.2" height="0.9" fill="#93c5fd"/>
<rect x="586.8" y="184.6" width="12.2" height="7.4" fill="#93c5fd"/>
<line x1="70" y1="192" x2="600" y2="192" stroke="#374151"/>
<line x1="283.8" y1="36" x2="283.8" y2="192" stroke="#374151" stroke-width="1.5" stroke-dasharray="4 3"/>
<text x="283.8" y="34" text-anchor="middle" font-size="10" fill="#374151">break-even 1.00x</text>
<line x1="154.1" y1="36" x2="154.1" y2="192" stroke="#059669" stroke-width="1.5" stroke-dasharray="4 3"/>
<text x="154.1" y="34" text-anchor="middle" font-size="10" fill="#059669">median 0.65x</text>
<line x1="178.4" y1="36" x2="178.4" y2="192" stroke="#dc2626" stroke-width="1.5" stroke-dasharray="4 3"/>
<text x="178.4" y="34" text-anchor="middle" font-size="10" fill="#dc2626">mean 0.72x</text>
<text x="97.7" y="208" text-anchor="middle" font-size="10" fill="#374151">0.5x</text>
<text x="283.8" y="208" text-anchor="middle" font-size="10" fill="#374151">1x</text>
<text x="469.8" y="208" text-anchor="middle" font-size="10" fill="#374151">1.5x</text>
<text x="335" y="226" text-anchor="middle" font-size="12">settlement payout / total spend</text></svg>